<svg clip-rule="evenodd" fill="#ffffff" fill-rule="evenodd" stroke-linejoin="round" stroke-miterlimit="2" viewBox="0 0 32 32" xmlns="http://www.w3.org/2000/svg"><path d="m14.994 5.958h-4.994v-.911c0-.552-.448-1-1-1s-1 .448-1 1v.911h-1.008c-.796 0-1.559.316-2.122.879-.562.562-.878 1.325-.878 2.121v16.047c0 .796.316 1.559.878 2.121.563.563 1.326.879 2.122.879h18.004c.796 0 1.559-.316 2.121-.879.563-.562.879-1.325.879-2.121v-16.047c0-.796-.316-1.559-.879-2.121-.562-.563-1.325-.879-2.121-.879h-.996v-.958c0-.552-.448-1-1-1s-1 .448-1 1v.958h-5.006v-.958c0-.552-.448-1-1-1s-1 .448-1 1zm11.002 8.051v10.996c0 .265-.105.52-.293.707-.188.188-.442.293-.707.293-4.184 0-13.82 0-18.004 0-.265 0-.52-.105-.707-.293-.188-.187-.293-.442-.293-.707v-10.996zm-1.996-6.051v1.038c0 .552-.448 1-1 1s-1-.448-1-1v-1.038h-5.006v1.08c0 .552-.448 1-1 1s-1-.448-1-1v-1.08h-4.994v1.08c0 .552-.448 1-1 1s-1-.448-1-1v-1.08h-1.008c-.265 0-.52.105-.707.293-.188.187-.293.442-.293.707v3.051h20.004v-3.051c0-.265-.105-.52-.293-.707-.188-.188-.442-.293-.707-.293z"/><path d="m9 16.982h2v2h-2z"/><path d="m9 21h2v2h-2z"/><path d="m13 16.982h2v2h-2z"/><path d="m13 21h2v2h-2z"/><path d="m17 16.982h2v2h-2z"/><path d="m17 21h2v2h-2z"/><path d="m21 16.982h2v2h-2z"/><path d="m21 21h2v2h-2z"/></svg>