<svg id="Layer_1" fill="#ffffff" enable-background="new 0 0 512 512" height="512" viewBox="0 0 512 512" width="512" xmlns="http://www.w3.org/2000/svg"><g><path d="m185.127 233.143c-13.065 0-23.695 13.079-23.695 29.155s10.63 29.155 23.695 29.155c13.066 0 23.697-13.079 23.697-29.155s-10.631-29.155-23.697-29.155z"/><path d="m326.873 233.143c-13.066 0-23.697 13.079-23.697 29.155s10.631 29.155 23.697 29.155c13.065 0 23.695-13.079 23.695-29.155s-10.63-29.155-23.695-29.155z"/><path d="m511.977 362.577c-.354-6.342-9.324-156.358-66.291-246.097-1.165-1.835-2.716-3.396-4.543-4.572-70.439-45.359-118.407-45.249-120.428-45.237-5.819.076-10.829 3.462-13.251 8.352l-24.199 46.373c45.394 2.969 88.503 13.291 123.594 29.814 7.495 3.529 10.71 12.467 7.182 19.961-2.557 5.43-7.953 8.614-13.581 8.614-2.142 0-4.314-.461-6.38-1.433-38.145-17.96-87.183-27.852-138.08-27.852-50.894 0-99.931 9.89-138.076 27.849-7.493 3.528-16.431.313-19.96-7.182-3.528-7.496-.313-16.433 7.182-19.961 35.091-16.52 78.2-26.842 123.591-29.811l-24.172-46.319c-2.411-4.919-7.438-8.328-13.279-8.405-2.035-.004-49.995-.117-120.426 45.237-1.827 1.177-3.378 2.737-4.543 4.572-56.969 89.739-65.94 239.755-66.294 246.097-.222 3.976 1.146 7.877 3.803 10.844 2.642 2.948 65.4 71.909 152.148 71.909.388 0 .787-.002 1.176-.004 4.559-.033 8.854-2.137 11.675-5.717l40.012-50.778c-51.621-5.895-98.485-21.375-132.885-44.449-6.88-4.615-8.716-13.934-4.101-20.813 4.615-6.881 13.934-8.715 20.813-4.101 39.822 26.712 99.356 42.032 163.336 42.032 63.983 0 123.517-15.32 163.335-42.033 6.877-4.616 16.198-2.78 20.813 4.1 4.616 6.879 2.78 16.197-4.1 20.813-34.396 23.076-81.262 38.558-132.885 44.452l40.012 50.778c2.821 3.58 7.116 5.684 11.675 5.717.395.002.782.004 1.176.004 86.739 0 149.508-68.961 152.148-71.909 2.656-2.968 4.024-6.869 3.803-10.845zm-326.85-41.124c-29.607 0-53.695-26.537-53.695-59.155s24.088-59.155 53.695-59.155c29.608 0 53.697 26.537 53.697 59.155s-24.089 59.155-53.697 59.155zm141.746 0c-29.608 0-53.697-26.537-53.697-59.155s24.089-59.155 53.697-59.155c29.607 0 53.695 26.537 53.695 59.155s-24.088 59.155-53.695 59.155z"/></g></svg>